<svg xmlns="http://www.w3.org/2000/svg" width="1200" height="700" viewBox="0 0 1200 700" role="img" aria-labelledby="title desc">
<title id="title">POS Operations / BOM Editor</title><desc id="desc">Nested item and component relationships</desc>
<defs><linearGradient id="top" x1="0" y1="0" x2="1" y2="0"><stop offset="0" stop-color="#4f46e5"/><stop offset="1" stop-color="#0f172a"/></linearGradient><filter id="shadow"><feDropShadow dx="0" dy="6" stdDeviation="8" flood-color="#0f172a" flood-opacity=".12"/></filter><style>
body{font-family:Inter,Segoe UI,Arial,sans-serif}.title{font:700 24px Inter,Segoe UI,Arial,sans-serif;fill:#0f172a}.sub{font:400 14px Inter,Segoe UI,Arial,sans-serif;fill:#64748b}.menu{font:400 15px Inter,Segoe UI,Arial,sans-serif;fill:#64748b}.menuActive{font:700 15px Inter,Segoe UI,Arial,sans-serif;fill:#4f46e5}.card{fill:#fff;stroke:#e2e8f0;filter:url(#shadow)}.label{font:400 12px Inter,Segoe UI,Arial,sans-serif;fill:#64748b}.value{font:700 22px Inter,Segoe UI,Arial,sans-serif;fill:#0f172a}.table{fill:#fff;stroke:#e2e8f0;filter:url(#shadow)}.head{font:700 12px Inter,Segoe UI,Arial,sans-serif;fill:#64748b}.row{font:400 14px Inter,Segoe UI,Arial,sans-serif;fill:#334155}.pillLight{font:700 12px Inter,Segoe UI,Arial,sans-serif;fill:#fff}.pillDark{font:700 12px Inter,Segoe UI,Arial,sans-serif;fill:#475569}.foot{font:400 12px Inter,Segoe UI,Arial,sans-serif;fill:#94a3b8}</style></defs>
<rect width="1200" height="700" fill="#f8fafc"/><rect width="1200" height="72" fill="url(#top)"/><text x="38" y="44" style="font:700 22px Inter,Segoe UI,Arial,sans-serif;fill:#fff">PROFESSIONAL DEMO</text><text x="930" y="43" style="font:400 13px Inter,Segoe UI,Arial,sans-serif;fill:#dbeafe">SANITIZED UI</text>
<rect x="0" y="72" width="260" height="628" fill="#fff"/><text x="40" y="120" style="font:700 18px Inter,Segoe UI,Arial,sans-serif;fill:#0f172a">POS Operations</text><text x="48" y="176" class="menuActive">Catalog</text><text x="48" y="218" class="menu">Items</text><text x="48" y="260" class="menu">Variants</text><text x="48" y="302" class="menu">BOM</text><text x="48" y="344" class="menu">Cost history</text>
<text x="330" y="112" class="title">POS Operations / BOM Editor</text><text x="330" y="137" class="sub">Nested item and component relationships</text><g><rect x="330" y="168" width="165" height="85" rx="12" class="card"/><text x="348" y="198" class="label">Root item</text><text x="348" y="230" class="value">Finished good</text></g><g><rect x="520" y="168" width="165" height="85" rx="12" class="card"/><text x="538" y="198" class="label">Components</text><text x="538" y="230" class="value">18 lines</text></g><g><rect x="710" y="168" width="165" height="85" rx="12" class="card"/><text x="728" y="198" class="label">Levels</text><text x="728" y="230" class="value">Nested</text></g><g><rect x="900" y="168" width="165" height="85" rx="12" class="card"/><text x="918" y="198" class="label">Cost mode</text><text x="918" y="230" class="value">Tracked</text></g>
<rect x="330" y="290" width="795" height="290" rx="14" class="table"/><text x="350" y="322" class="head">Component</text><text x="655" y="322" class="head">Quantity</text><text x="960" y="322" class="head">State</text><g><line x1="330" y1="355" x2="1125" y2="355" stroke="#e2e8f0"/><text x="350" y="342" class="row">Main component</text><text x="655" y="342" class="row">2 units</text><rect x="960" y="325" width="125" height="28" rx="14" fill="#4f46e5"/><text x="980" y="344" class="pillLight">Active</text></g><g><line x1="330" y1="409" x2="1125" y2="409" stroke="#e2e8f0"/><text x="350" y="396" class="row">Ingredient A</text><text x="655" y="396" class="row">1 unit</text><rect x="960" y="379" width="125" height="28" rx="14" fill="#e2e8f0"/><text x="980" y="398" class="pillDark">Active</text></g><g><line x1="330" y1="463" x2="1125" y2="463" stroke="#e2e8f0"/><text x="350" y="450" class="row">Sub-assembly</text><text x="655" y="450" class="row">1 unit</text><rect x="960" y="433" width="125" height="28" rx="14" fill="#4f46e5"/><text x="980" y="452" class="pillLight">Review</text></g>
<text x="330" y="635" class="foot">Recreated demo UI · sample data only · no production customer information</text>
</svg>
